<?xml version="1.0" standalone="no"?>
<!DOCTYPE svg PUBLIC "-//W3C//DTD SVG 20010904//EN"
 "http://www.w3.org/TR/2001/REC-SVG-20010904/DTD/svg10.dtd">
<svg version="1.0" xmlns="http://www.w3.org/2000/svg"
 width="1280.000000pt" height="839.000000pt" viewBox="0 0 1280.000000 839.000000"
 preserveAspectRatio="xMidYMid meet">
<metadata>
Created by potrace 1.15, written by Peter Selinger 2001-2017
</metadata>
<g transform="translate(0.000000,839.000000) scale(0.100000,-0.100000)"
fill="#000000" stroke="none">
<path d="M1720 7515 l0 -875 -860 0 -860 0 0 -215 0 -215 860 0 860 0 0 -900
0 -900 -860 0 -860 0 0 -215 0 -215 860 0 860 0 0 -900 0 -900 -860 0 -860 0
0 -215 0 -215 860 0 860 0 0 -875 0 -875 210 0 210 0 0 875 0 875 905 0 905 0
0 -875 0 -875 210 0 210 0 0 875 0 875 905 0 905 0 0 -875 0 -875 215 0 215 0
0 875 0 875 900 0 900 0 0 -875 0 -875 215 0 215 0 0 875 0 875 900 0 900 0 0
-875 0 -875 215 0 215 0 0 875 0 875 865 0 865 0 0 215 0 215 -865 0 -865 0 0
900 0 900 865 0 865 0 0 215 0 215 -865 0 -865 0 0 900 0 900 865 0 865 0 0
215 0 215 -865 0 -865 0 0 875 0 875 -215 0 -215 0 0 -875 0 -875 -900 0 -900
0 0 875 0 875 -215 0 -215 0 0 -875 0 -875 -900 0 -900 0 0 875 0 875 -215 0
-215 0 0 -875 0 -875 -905 0 -905 0 0 875 0 875 -210 0 -210 0 0 -875 0 -875
-905 0 -905 0 0 875 0 875 -210 0 -210 0 0 -875z m2230 -2205 l0 -900 -905 0
-905 0 0 900 0 900 905 0 905 0 0 -900z m2230 0 l0 -900 -905 0 -905 0 0 900
0 900 905 0 905 0 0 -900z m2230 0 l0 -900 -900 0 -900 0 0 900 0 900 900 0
900 0 0 -900z m2230 0 l0 -900 -900 0 -900 0 0 900 0 900 900 0 900 0 0 -900z
m-6690 -2230 l0 -900 -905 0 -905 0 0 900 0 900 905 0 905 0 0 -900z m2230 0
l0 -900 -905 0 -905 0 0 900 0 900 905 0 905 0 0 -900z m2230 0 l0 -900 -900
0 -900 0 0 900 0 900 900 0 900 0 0 -900z m2230 0 l0 -900 -900 0 -900 0 0
900 0 900 900 0 900 0 0 -900z"/>
</g>
</svg>
